# xmcd
#
# Track frame offsets:
#	150
#	18850
#	35739
#	47779
#	61575
#	77600
#	91591
#	110960
#	126567
#	144069
#	155939
#	173078
#	187013
#	202731
#	216889
#	232607
#	250805
#	264796
#	284471
#	302279
#
# Disc length: 4203 seconds
#
# Revision: 1
# Processed by: cddbd v1.5.1PL0 Copyright (c) Steve Scherf et al.
# Submitted via: audiograbber 1.83.01
#
DISCID=06106914
DTITLE=Cezar and Paulinho - Seleção de Ouro vol. 02
DYEAR=1900
DGENRE=Sertanejo
TTITLE0=Chique no úrtimo (verdade de pescador)
TTITLE1=Nóis é caubói (nóis é xiki)
TTITLE2=Pé de bode
TTITLE3=Ela é doida
TTITLE4=A gata do BMW
TTITLE5=Vai de roda
TTITLE6=Forró bailão
TTITLE7=Tchaca tchaca na butchaca
TTITLE8=Ai que vontade de você
TTITLE9=Chute prô gorrr
TTITLE10=Faz de conta que eu sou ele
TTITLE11=Asa delta
TTITLE12=Duas vezes você
TTITLE13=Noite maravilhosa
TTITLE14=Só por você
TTITLE15=Viajante solitário (o comboio)
TTITLE16=Você é tudo que eu pedi pra Deus
TTITLE17=Não olhe pro meu olhar
TTITLE18=Perdoa
TTITLE19=Canta moçada (fim de baile)
EXTD=
EXTT0=
EXTT1=
EXTT2=
EXTT3=
EXTT4=
EXTT5=
EXTT6=
EXTT7=
EXTT8=
EXTT9=
EXTT10=
EXTT11=
EXTT12=
EXTT13=
EXTT14=
EXTT15=
EXTT16=
EXTT17=
EXTT18=
EXTT19=
PLAYORDER=
